<svg width="20" height="20" viewBox="0 0 20 20" fill="none" xmlns="http://www.w3.org/2000/svg">
<path d="M12.7598 3.42422C12.7278 3.62422 12.7118 3.82421 12.7118 4.02421C12.7118 5.82418 14.1678 7.27936 15.9598 7.27936C16.1598 7.27936 16.3518 7.25616 16.5518 7.22416V13.6793C16.5518 16.392 14.9518 18 12.2318 18H6.32074C3.59998 18 2 16.392 2 13.6793V7.76015C2 5.04019 3.59998 3.42422 6.32074 3.42422H12.7598ZM12.9206 8.28815C12.7038 8.26415 12.4886 8.36014 12.3598 8.53614L10.4247 11.0401L8.20791 9.29613C8.07191 9.19213 7.91191 9.15133 7.75191 9.16813C7.59272 9.19213 7.44872 9.27933 7.35192 9.40733L4.98476 12.4881L4.93596 12.5601C4.79996 12.8153 4.86396 13.1433 5.10395 13.3201C5.21595 13.3921 5.33595 13.4401 5.47195 13.4401C5.65675 13.4481 5.83194 13.3513 5.94394 13.2001L7.95191 10.6153L10.2319 12.3281L10.3039 12.3753C10.5599 12.5113 10.8799 12.4481 11.0639 12.2073L13.3758 9.22413L13.3438 9.24013C13.4718 9.06413 13.4958 8.84014 13.4078 8.64014C13.3206 8.44014 13.1278 8.30415 12.9206 8.28815ZM16.0719 2C17.1359 2 17.9998 2.86399 17.9998 3.92797C17.9998 4.99196 17.1359 5.85594 16.0719 5.85594C15.0079 5.85594 14.1439 4.99196 14.1439 3.92797C14.1439 2.86399 15.0079 2 16.0719 2Z" fill="#EAEEF6"/>
</svg>
